<svg id="visual" viewBox="0 0 960 200" width="960" height="200" xmlns="http://www.w3.org/2000/svg" xmlns:xlink="http://www.w3.org/1999/xlink" version="1.1"><path d="M0 35L32 37.3C64 39.7 128 44.3 192 46C256 47.7 320 46.3 384 43C448 39.7 512 34.3 576 32.7C640 31 704 33 768 35.3C832 37.7 896 40.3 928 41.7L960 43L960 0L928 0C896 0 832 0 768 0C704 0 640 0 576 0C512 0 448 0 384 0C320 0 256 0 192 0C128 0 64 0 32 0L0 0Z" fill="#5c55ef"></path><path d="M0 97L32 99C64 101 128 105 192 110C256 115 320 121 384 115.7C448 110.3 512 93.7 576 87.3C640 81 704 85 768 92C832 99 896 109 928 114L960 119L960 41L928 39.7C896 38.3 832 35.7 768 33.3C704 31 640 29 576 30.7C512 32.3 448 37.7 384 41C320 44.3 256 45.7 192 44C128 42.3 64 37.7 32 35.3L0 33Z" fill="#5048ef"></path><path d="M0 163L32 164C64 165 128 167 192 169.7C256 172.3 320 175.7 384 176C448 176.3 512 173.7 576 171C640 168.3 704 165.7 768 167C832 168.3 896 173.7 928 176.3L960 179L960 117L928 112C896 107 832 97 768 90C704 83 640 79 576 85.3C512 91.7 448 108.3 384 113.7C320 119 256 113 192 108C128 103 64 99 32 97L0 95Z" fill="#5048ef"></path><path d="M0 201L32 201C64 201 128 201 192 201C256 201 320 201 384 201C448 201 512 201 576 201C640 201 704 201 768 201C832 201 896 201 928 201L960 201L960 177L928 174.3C896 171.7 832 166.3 768 165C704 163.7 640 166.3 576 169C512 171.7 448 174.3 384 174C320 173.7 256 170.3 192 167.7C128 165 64 163 32 162L0 161Z" fill="#5c55ef"></path></svg>